<?xml version="1.0" encoding="utf-8"?>
<!-- Generator: Adobe Illustrator 23.0.4, SVG Export Plug-In . SVG Version: 6.00 Build 0)  -->
<svg version="1.1" id="Ebene_1" xmlns="http://www.w3.org/2000/svg" xmlns:xlink="http://www.w3.org/1999/xlink" x="0px" y="0px"
	 viewBox="0 0 794.6 175" style="enable-background:new 0 0 794.6 175;" xml:space="preserve">
<style type="text/css">
	.st0{fill:#F18700;}
</style>
<path class="st0" d="M518.4,34.1c0,0-4.9,0.1-21.3,0.1l0,0h0c-18.6,0-34.1,13.2-38.9,31.1c-1,3.7-1.5,10.8-1.5,14.8v86.5h-38.7l0,0
	V76.9h0.3C418.3,32.1,449,0,499.3,0c12.9,0,19.1,0,19.1,0V34.1z"/>
<path class="st0" d="M618.7,34.1c0,0-4.9,0.1-21.3,0.1l0,0h0c-18.6,0-34.1,13.2-38.9,31.1c-1,3.7-1.5,10.8-1.5,14.8v86.5h-38.7l0,0
	V76.9h0.3c0-44.9,30.7-76.9,80.9-76.9c12.9,0,19.1,0,19.1,0V34.1z"/>
<path class="st0" d="M130.2,59.2l28.1-19.1C142.9,17,116.4,1.7,86.3,1.7C38.7,1.7,0,40.1,0,87.5c0,47.4,38.7,85.9,86.3,85.9
	c30.1,0,56.5-15.3,72-38.5l-28.1-19.1c-0.9,1.3-1.8,2.5-2.8,3.7c-0.1,0.1-0.2,0.3-0.3,0.4c-0.9,1-1.8,2-2.7,3
	c-0.5,0.6-1.1,1.1-1.7,1.6c-0.2,0.2-0.5,0.4-0.7,0.6c-9,8-20.8,13-33.8,13c-28,0-50.6-22.6-50.6-50.5C37.5,59.6,60.2,37,88.1,37
	c10.9,0,21,3.5,29.3,9.4c0.9,0.6,1.7,1.2,2.5,1.9c0.3,0.3,0.7,0.6,1,0.8C124.5,52,127.6,55.4,130.2,59.2L130.2,59.2z"/>
<path class="st0" d="M794.9,172.5V151v-9.5v-36.8c0-22.9-1.9-35.5-4-42.8c-2.4-8.3-6.4-16.3-11.2-23.2c-0.3-0.4-0.6-0.8-0.8-1.2
	c-0.7-1-1.4-1.9-2.2-2.9c-0.3-0.4-0.6-0.8-0.9-1.2c-0.9-1.1-1.8-2.2-2.8-3.3c-0.1-0.2-0.3-0.3-0.4-0.5c-1.1-1.2-2.2-2.4-3.4-3.5
	c-0.3-0.3-0.7-0.6-1-0.9c-0.9-0.8-1.8-1.7-2.7-2.5c-0.4-0.3-0.8-0.7-1.2-1c-1-0.8-2-1.7-3.1-2.5c-0.3-0.2-0.5-0.4-0.8-0.6
	c-1.3-1-2.6-1.9-4-2.8c-0.3-0.2-0.7-0.4-1-0.7c-1.1-0.7-2.1-1.3-3.2-2c-0.5-0.3-0.9-0.5-1.4-0.8c-1.1-0.6-2.2-1.2-3.3-1.8
	c-0.4-0.2-0.7-0.4-1.1-0.6c-1.5-0.7-3-1.4-4.5-2c-0.3-0.1-0.6-0.2-1-0.4c-1.2-0.5-2.5-1-3.7-1.4c-0.5-0.2-1-0.3-1.5-0.5
	c-1.2-0.4-2.4-0.8-3.6-1.1c-0.5-0.1-0.9-0.3-1.4-0.4c-1.6-0.4-3.3-0.8-4.9-1.2c-0.2,0-0.5-0.1-0.7-0.1c-1.5-0.3-2.9-0.5-4.4-0.7
	c-0.5-0.1-1.1-0.1-1.6-0.2c-1.2-0.2-2.5-0.3-3.8-0.4c-0.5,0-1-0.1-1.6-0.1c-1.7-0.1-3.5-0.2-5.3-0.2c-0.6,0-1.2,0-1.8,0.1
	c-0.6,0-1.2-0.1-1.8-0.1c-47.6,0-86.3,38.6-86.3,86.3c0,47.6,38.6,86.3,86.3,86.3c0.6,0,1.2,0,1.8-0.1c0.6,0,1.2,0.1,1.8,0.1
	c1.9,0,3.7-0.1,5.5-0.2c0.4,0,0.8,0,1.2-0.1c1.8-0.1,3.5-0.3,5.3-0.6c0.3,0,0.6-0.1,1-0.1c1.5-0.2,3.1-0.5,4.6-0.8
	c0.3-0.1,0.7-0.1,1-0.2c1.7-0.4,3.3-0.8,4.9-1.2c0.4-0.1,0.9-0.3,1.3-0.4c1.5-0.4,3-0.9,4.4-1.5c0.3-0.1,0.5-0.2,0.8-0.3
	c1.5-0.5,2.9-1.1,4.3-1.8c0.5-0.2,0.9-0.4,1.4-0.6c1.4-0.7,2.9-1.4,4.3-2.1c0.4-0.2,0.8-0.4,1.2-0.7c1.1-0.6,2.3-1.3,3.4-1.9
	c0.4-0.2,0.8-0.5,1.3-0.8c1.3-0.8,2.6-1.7,3.9-2.6c0.4-0.3,0.9-0.6,1.3-0.9c1.1-0.8,2.3-1.7,3.4-2.6c0.2-0.2,0.4-0.3,0.6-0.5
	L794.9,172.5L794.9,172.5z M757,87.5c0,12.2-4.3,23.3-11.5,32c-0.5,0.6-1,1.2-1.6,1.8c-2.2,2.4-4.5,4.6-7.1,6.5
	c-0.6,0.5-1.3,1-2,1.4c-4.7,3.2-9.9,5.6-15.5,7.1c-4,1.1-8.2,1.6-12.6,1.6c-27.8-0.2-50.2-22.7-50.2-50.5
	c0-27.8,22.5-50.3,50.2-50.5c4.3,0,8.5,0.6,12.6,1.7c5.6,1.5,10.8,3.9,15.5,7.1c0.7,0.5,1.3,0.9,2,1.4c2.6,1.9,5,4.1,7.1,6.5
	c0.5,0.6,1.1,1.2,1.6,1.8C752.7,64.2,757,75.4,757,87.5"/>
<path class="st0" d="M401.3,87.5c0-48.3-38.3-87.5-86-87.5c-47.7,0-85.4,39.2-85.4,87.5c0,48.3,37.6,87.5,85.4,87.5
	c1.5,0,2.9,0,4.4-0.1c0.1,0,0.1,0,0.2,0c28.3-1.4,54.1-13.7,69.5-34.9l-27.9-20.8C350,133,332,139.8,315.2,139.8
	c-21.7,0-43.7-15.6-46.3-37.4h131.4C401.2,97.6,401.3,92.6,401.3,87.5 M361.5,70.4H269c2.5-21.6,24.6-37.4,46.3-37.4
	C337,33.1,358.9,48.9,361.5,70.4"/>
<polygon class="st0" points="173.9,8.4 173.9,166.5 213.6,166.5 213.6,109.1 213.6,8.4 173.9,8.4 "/>
</svg>
